<?xml version="1.0" encoding="UTF-8" standalone="no"?>
<svg width="688px" height="470px" viewBox="0 0 688 470" version="1.1" xmlns="http://www.w3.org/2000/svg" xmlns:xlink="http://www.w3.org/1999/xlink">
    <!-- Generator: Sketch 48.2 (47327) - http://www.bohemiancoding.com/sketch -->
    <title>pattern</title>
    <desc>Created with Sketch.</desc>
    <defs></defs>
    <g id="Artboard" stroke="none" stroke-width="1" fill="none" fill-rule="evenodd" transform="translate(-70.000000, -64.000000)" opacity="0.109549907">
        <g id="pattern" transform="translate(70.000000, 64.000000)" stroke-width="2">
            <g id="shapes" transform="translate(-5.504000, -7.507987)">
                <path d="M223.334806,120.887028 L250.354442,144.412054" id="Line" stroke="#E5DB6D" stroke-linecap="square"></path>
                <polyline id="Path-2" stroke="#848D96" points="277.296874 95.148709 265.774829 117.385256 275.133192 140.179035"></polyline>
                <polyline id="Path-3" stroke="#848D96" points="301.465806 96.2240717 298.465579 134.263563 328.755169 139.844695"></polyline>
                <path d="M321.552669,111.051369 C321.552669,111.051369 330.267988,100.985974 357.128329,126.405594" id="Path-4" stroke="#848D96"></path>
                <path d="M361.198669,95.0519263 C361.198669,95.0519263 402.371169,126.699852 361.051101,144.262481" id="Path-5" stroke="#848D96"></path>
                <polyline id="Path-6" stroke="#848D96" points="412.581715 127.638351 396.786056 99.3797726 427.454829 111.051369 419.197851 89.5656211"></polyline>
                <path d="M379.757079,149.864143 C379.757079,149.864143 390.237351,177.478481 369.775215,171.453517 C349.313079,165.428553 350.427169,147.136632 340.344647,164.342437" id="Path-7" stroke="#848D96"></path>
                <path d="M399.920169,145.811003 C399.920169,145.811003 414.543101,169.793548 436.234647,175.726618" id="Path-8" stroke="#848D96"></path>
                <polyline id="Path-9" stroke="#848D96" points="432.936351 154.903684 464.578488 160.824045 466.500783 192.036938 489.926988 196.922018"></polyline>
                <polyline id="Path-10" stroke="#848D96" points="500.76201 178.692664 526.858124 145.363262 534.417329 188.983885"></polyline>
                <polyline id="Path-11" stroke="#848D96" points="494.943329 205.868058 516.480465 197.439169 504.896851 228.366602 532.802874 212.664351"></polyline>
                <polyline id="Path-12" stroke="#848D96" points="459.959897 134.02014 470.345374 148.921735 485.030851 134.298756 496.979965 155.560633"></polyline>
                <polyline id="Path-13" stroke="#848D96" points="486.849556 109.589853 509.307283 122.444348 531.75426 112.854068"></polyline>
                <path d="M541.378442,120.533136 C541.378442,120.533136 546.888306,135.758317 559.880169,128.145726" id="Path-14" stroke="#848D96"></path>
                <path d="M547.595851,150.055754 C547.595851,150.055754 588.507419,182.050728 547.434601,200.558699" id="Path-15" stroke="#E5DB6D"></path>
                <path d="M588.031488,200.292791 C588.031488,200.292791 601.894101,221.708151 623.716601,229.880908" id="Path-16" stroke="#848D96"></path>
                <polyline id="Path-17" stroke="#848D96" points="597.872624 187.033568 582.935988 159.316582 613.033056 170.888463 604.830806 149.252164"></polyline>
                <polyline id="Path-18" stroke="#848D96" points="612.043079 187.743308 622.308351 203.264703 637.133579 188.385592 649.287919 208.929909"></polyline>
                <path d="M417.43876,199.942809 C417.43876,199.942809 435.69226,194.959969 463.075442,205.778119" id="Path-19" stroke="#848D96"></path>
                <polyline id="Path-20" stroke="#848D96" points="403.596669 214.804323 394.275442 185.930833 412.701919 187.059963 399.665101 176.620146"></polyline>
                <polyline id="Path-21" stroke="#848D96" points="334.990169 211.284953 356.962192 223.424821 378.998715 213.70843"></polyline>
                <polyline id="Path-22" stroke="#848D96" points="314.892556 201.763105 321.340601 175.207511 330.219124 202.696716 357.773329 184.584674"></polyline>
                <path d="M293.951556,155.993711 L321.088465,155.850981" id="Path-23" stroke="#848D96"></path>
                <path d="M364.695351,198.723739 C364.695351,198.723739 368.728556,193.823018 382.936147,194.516138" id="Path-24" stroke="#848D96"></path>
                <polyline id="Path-25" stroke="#848D96" points="232.883738 104.972637 252.212238 92.5942336 238.551919 77.8207046 253.019465 68.0642316"></polyline>
                <polyline id="Path-26" stroke="#848D96" points="321.761806 51.1077162 336.590942 79.3369661 307.620669 68.1668799 316.347715 89.9498189"></polyline>
                <polyline id="Path-27" stroke="#848D96" points="298.319965 16.8828302 308.540283 31.7756267 323.319579 17.7225908 335.087897 37.5121982"></polyline>
                <polyline id="Path-28" stroke="#848D96" points="340.60851 6.72358501 363.145397 18.7568942 385.651988 9.51170735"></polyline>
                <polyline id="Path-29" stroke="#848D96" points="241.48276 5.51038031 272.760374 11.3085408 275.109738 42.2555256 297.660306 46.9225999"></polyline>
                <polyline id="Path-30" stroke="#848D96" points="232.218215 40.9993064 226.782624 72.0215666 195.739556 74.6728246 191.46301 97.6142225"></polyline>
                <polyline id="Path-31" stroke="#848D96" points="178.565942 132.236015 160.835283 154.278019 155.894192 126.842582"></polyline>
                <path d="M184.556624,150.02056 L184.556624,178.433041" id="Path-32" stroke="#848D96"></path>
                <path d="M179.465033,62.5270911 L157.026851,88.5234968" id="Path-33" stroke="#848D96"></path>
                <path d="M189.142965,53.5722521 C189.142965,53.5722521 231.103147,37.6539506 189.042306,4.61587402" id="Path-34" stroke="#848D96"></path>
                <path d="M228.673647,3.52682483 C228.673647,3.52682483 231.476465,7.04717144 230.542192,12.3741275 C229.607919,17.7010835 229.670465,24.7427543 240.882715,24.0730966 C252.094965,23.4034389 252.962783,30.4480425 252.71651,34.4288399 C252.470238,38.4096373 251.299465,42.4549565 254.260601,44.8217321" id="Path-35" stroke="#848D96"></path>
                <path d="M273.301783,57.4758189 C273.301783,57.4758189 287.953056,56.159966 286.623965,72.3412426" id="Path-36" stroke="#848D96"></path>
                <polyline id="Path-37" stroke="#848D96" points="175.668329 23.7602638 162.284579 42.9945931 137.310374 44.2478795"></polyline>
                <polyline id="Path-38" stroke="#848D96" points="160.908579 8.52921684 134.419601 25.6538799 125.072965 0.384810388 119.047101 24.8268282"></polyline>
                <path d="M93.2764194,8.19976479 L107.800647,31.9965649" id="Path-39" stroke="#848D96"></path>
                <polyline id="Path-40" stroke="#848D96" points="103.795783 57.586288 114.051283 72.6286577 129.058283 58.4631975 141.414919 78.6477563"></polyline>
                <path d="M139.790692,96.9768257 C139.790692,96.9768257 142.404897,113.323317 157.545783,104.101593 C172.686669,94.8798683 174.171147,106.040178 174.171147,106.040178" id="Path-41" stroke="#848D96"></path>
                <path d="M213.821056,104.33915 C213.821056,104.33915 200.553601,107.881004 207.187329,119.532071 C213.821056,131.183137 211.916351,132.6906 204.86826,135.131674" id="Path-42" stroke="#848D96"></path>
                <polyline id="Path-43" stroke="#848D96" points="83.5222603 4.76740241 66.8382603 18.1517583 55.0650558 3.65977877 41.0216467 13.0144571 29.6579194 4.32845888"></polyline>
                <path d="M3.74651032,15.3294198 C3.74651032,15.3294198 23.0173512,14.6167476 23.6476921,31.7521643 C24.2780331,48.887581 31.1981012,49.4066879 43.4345331,50.3569175" id="Path-44" stroke="#848D96"></path>
                <path d="M68.822124,38.125155 C68.822124,38.125155 66.0153967,26.1397483 84.2043967,25.0360351" id="Path-45" stroke="#848D96"></path>
                <polyline id="Path-46" stroke="#848D96" points="89.4846012 48.215968 51.9309421 52.0755427 52.3218512 83.3402484"></polyline>
                <polyline id="Path-47" stroke="#848D96" points="76.7937376 78.7963519 107.848533 84.5114162 110.517465 115.789808 133.615306 120.364988"></polyline>
                <path d="M134.347283,132.553736 L141.44326,152.11654" id="Path-48" stroke="#848D96"></path>
                <path d="M103.78601,138.830922 C103.78601,138.830922 117.779579,136.135672 117.505942,153.761845" id="Path-49" stroke="#848D96"></path>
                <path d="M65.2716921,144.385659 C65.2716921,144.385659 68.1008967,127.935542 94.3396921,108.570214" id="Path-50" stroke="#848D96"></path>
                <path d="M30.401624,105.474147 L68.4605331,102.583376" id="Path-51" stroke="#848D96"></path>
                <polyline id="Path-52" stroke="#848D96" points="17.4175785 59.0781094 32.1978512 86.260347 2.99303305 75.9231782 10.2864194 96.3061903"></polyline>
                <polyline id="Path-53" stroke="#848D96" points="27.5137831 122.457057 7.44451032 138.695035 32.2672376 151.195638"></polyline>
                <path d="M55.5732376,120.888005 C55.5732376,120.888005 32.1919876,127.831916 47.182374,149.06642" id="Path-54" stroke="#848D96"></path>
                <polyline id="Path-55" stroke="#848D96" points="79.8457603 141.704095 74.0436921 172.856377 43.1139876 176.146009 39.1570103 199.193966"></polyline>
                <path d="M14.5610103,163.500721 C14.5610103,163.500721 -2.30378513,166.102121 0.521510324,186.428432" id="Path-56" stroke="#848D96"></path>
                <polyline id="Path-57" stroke="#848D96" points="27.1101694 184.291393 15.2773512 197.621981 19.5001467 216.677409 10.1525331 226.171884 14.3557831 245.870575"></polyline>
                <polyline id="Path-58" stroke="#848D96" points="104.599101 168.420994 90.6895785 178.634985 104.300056 193.572751 85.1425785 206.028385"></polyline>
                <path d="M61.8903285,204.90512 C61.8903285,204.90512 48.128374,207.958172 55.5390331,221.583018 C62.9496921,235.207864 53.0460103,236.364368 53.0460103,236.364368" id="Path-59" stroke="#848D96"></path>
                <path d="M71.2907149,222.181311 L97.3174421,244.438387" id="Path-60" stroke="#848D96"></path>
                <polyline id="Path-61" stroke="#848D96" points="124.807147 195.107587 113.565579 217.290366 122.612192 239.411555"></polyline>
                <polyline id="Path-62" stroke="#848D96" points="138.731329 171.684231 163.934215 178.363212 138.409806 187.638704 156.270442 214.252955"></polyline>
                <path d="M175.837397,196.51338 C175.837397,196.51338 186.706624,200.879352 180.655351,207.697152 C174.604079,214.514952 161.714829,236.693087 173.448942,238.697905 C185.183056,240.702724 189.860283,236.02905 189.860283,236.02905" id="Path-63" stroke="#848D96"></path>
                <polyline id="Path-64" stroke="#848D96" points="119.69601 254.552663 137.515601 258.459162 138.08926 237.373254 161.074715 243.557567"></polyline>
                <polyline id="Path-65" stroke="#848D96" points="40.5369194 233.621215 24.972874 253.303287 29.305124 276.681673"></polyline>
                <polyline id="Path-66" stroke="#E5DB6D" points="57.2082149 268.846189 76.6461694 247.304718 80.0001694 272.059568 95.4146921 261.72631"></polyline>
                <path d="M113.537238,271.258912 C113.537238,271.258912 85.3429194,308.691312 136.43376,315.146421" id="Path-67" stroke="#848D96"></path>
                <polyline id="Path-68" stroke="#848D96" points="83.0277603 308.117459 55.9397149 292.81798 47.6602603 314.832611 40.6903512 292.017323"></polyline>
                <polyline id="Path-69" stroke="#848D96" points="8.37096487 277.209578 5.23391942 314.589188 35.0798285 319.914188"></polyline>
                <polyline id="Path-70" stroke="#848D96" points="13.7762603 332.06872 36.6053512 346.742534 10.4662376 352.135967 33.2171467 374.322656 5.30135123 373.911085"></polyline>
                <polyline id="Path-71" stroke="#848D96" points="56.384374 374.752801 53.2825103 339.708684 83.5310558 336.140435"></polyline>
                <polyline id="Path-72" stroke="#848D96" points="89.9957149 320.165432 111.022715 318.581716 100.760374 338.593239 123.25426 331.457719 115.025624 358.05926"></polyline>
                <path d="M81.2080785,354.161559 C81.2080785,354.161559 121.476601,371.218768 81.3742149,398.087195" id="Path-73" stroke="#848D96"></path>
                <polyline id="Path-74" stroke="#848D96" points="40.3013967 392.496286 32.4216467 412.135343 63.1265785 401.830435 48.8681694 427.634253"></polyline>
                <polyline id="Path-75" stroke="#848D96" points="11.1991921 402.857895 4.99253305 426.112126 25.9853285 426.869768 21.4986694 444.649425"></polyline>
                <path d="M1.97276032,468.842154 C1.97276032,468.842154 31.6183285,463.447743 34.3322149,488.703126" id="Path-76" stroke="#848D96"></path>
                <polyline id="Path-77" stroke="#848D96" points="36.2046694 437.982175 43.3250785 461.86696 65.6147149 471.075975"></polyline>
                <path d="M79.3532149,411.298515 L81.1230558,445.86654" id="Path-78" stroke="#848D96"></path>
                <polyline id="Path-79" stroke="#848D96" points="90.7853512 459.278268 74.5118058 466.405968 85.0350785 483.138613 63.5086921 491.400331"></polyline>
                <polyline id="Path-80" stroke="#848D96" points="100.899147 459.555907 125.378851 449.4954 111.238692 473.079083 144.215783 487.840881"></polyline>
                <polyline id="Path-81" stroke="#848D96" points="113.730738 433.422637 105.587124 411.870413 135.974442 424.490283 120.962556 395.299073"></polyline>
                <path d="M145.072851,328.859251 C145.072851,328.859251 123.843556,359.952876 132.06926,376.802833" id="Path-82" stroke="#848D96"></path>
                <polyline id="Path-83" stroke="#848D96" points="156.712169 338.314623 165.649329 361.844537 154.890533 382.58633"></polyline>
                <path d="M174.100783,394.313649 L200.062033,374.114426" id="Path-84" stroke="#848D96"></path>
                <polyline id="Path-85" stroke="#848D96" points="193.128283 357.903822 176.39151 343.922151 190.724192 330.471318 177.887715 318.885751"></polyline>
                <path d="M208.060033,356.88516 C208.060033,356.88516 221.589397,354.964171 221.247351,371.052575" id="Path-86" stroke="#848D96"></path>
                <polyline id="Path-87" stroke="#848D96" points="196.391397 399.992542 218.956624 403.944011 195.858783 417.152399 214.15626 427.562888 194.975329 436.454183"></polyline>
                <path d="M186.781874,428.189531 C186.781874,428.189531 168.093488,438.410365 163.41626,419.005933 C158.739033,399.601501 157.906397,401.608519 146.06576,403.251869" id="Path-88" stroke="#848D96"></path>
                <path d="M154.056919,435.059144 C154.056919,435.059144 194.331306,465.205472 154.47226,483.701712" id="Path-89" stroke="#848D96"></path>
                <path d="M186.875692,478.686611 C186.875692,478.686611 190.19451,463.044971 215.885056,442.603302" id="Path-90" stroke="#848D96"></path>
                <path d="M244.861192,449.169858 C244.861192,449.169858 229.966579,447.370092 229.941169,461.648954" id="Path-91" stroke="#848D96"></path>
                <path d="M208.782238,476.953322 C208.782238,476.953322 213.527874,475.432172 218.85401,481.878483 C224.180147,488.324794 230.762079,481.110087 233.499419,476.96603 C236.23676,472.821973 240.886624,469.085577 249.156306,475.48203" id="Path-92" stroke="#848D96"></path>
                <polyline id="Path-93" stroke="#848D96" points="264.173079 454.321824 283.397988 467.291676 286.032715 492.48547"></polyline>
                <polyline id="Path-94" stroke="#848D96" points="271.586669 424.839287 240.747851 427.8679 235.468624 400.094213"></polyline>
                <path d="M275.041329,398.776405 L301.043624,421.508596" id="Path-95" stroke="#848D96"></path>
                <polyline id="Path-96" stroke="#848D96" points="278.732488 433.142065 301.054374 445.027757 323.06451 436.044567"></polyline>
                <polyline id="Path-97" stroke="#848D96" points="302.824215 456.425624 304.829579 480.027881 324.593942 473.502385 326.608101 491.526442"></polyline>
                <polyline id="Path-98" stroke="#E5DB6D" points="241.600033 370.734854 245.545283 348.577494 277.262669 349.442672 283.387238 318.743021"></polyline>
                <polyline id="Path-99" stroke="#848D96" points="195.597851 291.17854 197.583669 321.623038 222.350692 314.936236 227.224351 347.425878"></polyline>
                <polyline id="Path-100" stroke="#848D96" points="142.985397 299.641645 150.262169 269.668353 187.78651 276.068716"></polyline>
                <path d="M172.288919,295.934577 C172.288919,295.934577 157.70801,296.959104 159.498374,310.205618" id="Path-101" stroke="#848D96"></path>
                <path d="M194.63426,256.052305 C194.63426,256.052305 217.948079,280.987034 217.926579,294.319577" id="Path-102" stroke="#848D96"></path>
                <path d="M234.404374,244.13142 L229.60401,252.552488 C229.60401,252.552488 224.019874,266.255542 229.212124,267.965369 C234.404374,269.675196 237.189601,267.007319 244.216192,259.779903 C251.242783,252.552488 264.727192,268.958613 249.565783,280.39363" id="Path-103" stroke="#848D96"></path>
                <polyline id="Path-104" stroke="#848D96" points="231.621101 308.697177 250.304601 315.541372 263.349238 286.764665"></polyline>
                <path d="M268.578624,322.400232 C268.578624,322.400232 273.685851,304.809252 297.639783,285.2093" id="Path-105" stroke="#848D96"></path>
                <path d="M301.837169,314.436682 C301.837169,314.436682 315.868851,312.159845 315.78676,329.569968" id="Path-106" stroke="#848D96"></path>
                <polyline id="Path-107" stroke="#848D96" points="280.625465 256.147132 311.747692 261.89739 313.890851 293.338064 337.52326 297.171244"></polyline>
                <polyline id="Path-108" stroke="#848D96" points="304.849124 348.260751 290.272124 358.392623 304.630215 373.422284 284.045919 386.252339"></polyline>
                <polyline id="Path-109" stroke="#848D96" points="327.137783 351.653031 315.472079 374.877934 324.846079 396.853461"></polyline>
                <path d="M260.793669,371.135672 C260.793669,371.135672 248.393056,374.175038 253.800306,385.972745 C259.207556,397.770452 261.377101,398.469437 251.665942,402.613494" id="Path-110" stroke="#848D96"></path>
                <polyline id="Path-111" stroke="#848D96" points="360.152988 391.181411 342.364669 364.881948 367.455169 355.069752 342.722351 349.001773"></polyline>
                <polyline id="Path-112" stroke="#848D96" points="358.526806 328.746827 326.202533 320.482175 379.667169 300.922305"></polyline>
                <path d="M387.70426,327.398713 L387.70426,356.204508" id="Path-113" stroke="#848D96"></path>
                <path d="M335.520829,398.242634 L344.896783,430.324615" id="Path-114" stroke="#848D96"></path>
                <polyline id="Path-115" stroke="#848D96" points="373.054942 428.754585 384.968874 448.599916 399.95926 434.290748 410.050579 448.964562"></polyline>
                <path d="M370.972374,474.969766 L402.835374,485.645185" id="Path-116" stroke="#848D96"></path>
                <polyline id="Path-117" stroke="#848D96" points="396.017919 459.621407 418.129692 472.075085 440.134942 462.639266"></polyline>
                <path d="M365.969715,436.63895 C365.969715,436.63895 364.163715,441.014698 359.360419,443.124365 C354.557124,445.234031 350.147669,452.384216 356.570306,459.409267 C362.992942,466.434319 359.658488,471.103348 354.957806,474.469234 C350.257124,477.835119 348.973965,476.645377 347.167965,481.30463" id="Path-118" stroke="#848D96"></path>
                <path d="M379.39451,373.204278 C379.39451,373.204278 390.507079,378.452049 384.141124,385.722478 C377.775169,392.992908 354.369488,424.204823 394.450374,413.221459" id="Path-119" stroke="#848D96"></path>
                <polyline id="Path-120" stroke="#848D96" points="404.516283 361.584495 409.104579 331.78326 447.348192 334.369019"></polyline>
                <path d="M433.424988,352.136944 C433.424988,352.136944 442.302533,365.393234 418.786419,387.590677" id="Path-121" stroke="#848D96"></path>
                <path d="M404.328647,388.479318 C404.328647,388.479318 422.536215,429.199395 454.312238,387.787175" id="Path-122" stroke="#848D96"></path>
                <path d="M426.333897,424.069914 C426.333897,424.069914 435.933647,412.375833 446.398283,424.136391" id="Path-123" stroke="#848D96"></path>
                <path d="M474.560351,428.225702 L436.295238,448.78175" id="Path-124" stroke="#848D96"></path>
                <polyline id="Path-125" stroke="#848D96" points="465.424806 456.398251 479.999851 484.004768 449.697556 473.725278 458.124579 494.621532"></polyline>
                <path d="M371.444167,36.1962047 C371.444167,36.1962047 329.641033,53.6989718 372.045428,85.7187296" id="Path-126" stroke="#848D96"></path>
                <polyline id="Path-127" stroke="#848D96" points="372.773315 66.185807 388.481039 73.623966 393.646886 52.8889777 415.318119 63.8161433"></polyline>
                <polyline id="Path-128" stroke="#848D96" points="398.956588 31.6679928 429.526998 36.1384711 426.886791 74.536502"></polyline>
                <path d="M458.618375,61.8885296 L436.177908,86.8372109" id="Path-129" stroke="#848D96"></path>
                <path d="M428.387359,11.5206805 L401.065685,11.5206805" id="Path-130" stroke="#848D96"></path>
                <polyline id="Path-131" stroke="#848D96" points="448.924982 5.47329924 445.73003 43.2707281 476.359015 48.3762762"></polyline>
                <polyline id="Path-132" stroke="#848D96" points="464.293313 99.0862181 470.601383 72.2021678 479.030233 98.661402 506.58917 81.0776355"></polyline>
                <polyline id="Path-133" stroke="#848D96" points="487.412567 41.9480249 479.682317 21.0562078 510.231192 33.3327893 494.400286 3.75076915"></polyline>
                <path d="M515.678718,45.6955403 L548.765293,48.3960952" id="Path-134" stroke="#848D96"></path>
                <path d="M500.374993,46.1005374 C500.374993,46.1005374 501.557702,72.1177216 536.747828,69.1603813" id="Path-135" stroke="#848D96"></path>
                <path d="M454.542205,113.336083 C454.542205,113.336083 438.065246,111.037078 439.39784,125.778972" id="Path-136" stroke="#848D96"></path>
                <path d="M530.42253,83.2990875 C530.42253,83.2990875 537.847843,82.8958139 541.79394,86.9268273 C545.740038,90.9578407 552.948276,88.3150194 555.821924,80.3805235 C558.695572,72.4460277 563.335101,71.3758014 569.980842,75.1112531 C576.626583,78.8467048 577.138258,79.0862563 579.91026,78.2995279" id="Path-137" stroke="#848D96"></path>
                <path d="M602.715102,81.0845291 L626.95246,68.0375915" id="Path-138" stroke="#848D96"></path>
                <polyline id="Path-139" stroke="#848D96" points="564.707319 54.1961703 591.512527 36.5124471 600.354851 61.969529 606.496671 35.3491577"></polyline>
                <polyline id="Path-140" stroke="#848D96" points="571.385794 29.5137531 548.764431 17.7223064 527.434315 27.0415475"></polyline>
                <polyline id="Path-141" stroke="#848D96" points="592.98553 98.8035818 622.940035 102.982807 620.989813 141.113712"></polyline>
                <path d="M636.578664,112.628242 L664.415669,112.628242" id="Path-142" stroke="#848D96"></path>
                <path d="M565.131992,112.526951 C565.131992,112.526951 590.466781,134.696663 600.932854,127.306759" id="Path-143" stroke="#848D96"></path>
                <path d="M649.728014,145.799614 C649.728014,145.799614 633.991864,143.905607 634.683572,158.271801" id="Path-144" stroke="#848D96"></path>
                <polyline id="Path-145" stroke="#848D96" points="574.725462 0.681408362 586.699856 20.9786552 601.565126 6.13766678 611.783976 21.4250137"></polyline>
                <path d="M645.234925,5.45348024 C645.234925,5.45348024 640.543712,11.2871615 633.232966,11.7429986 C625.92222,12.1988357 629.429,22.6960151 629.429,22.6960151 C629.429,22.6960151 636.397769,35.9583767 625.294255,38.4616033 C614.190742,40.9648298 615.656854,45.1113105 615.656854,45.1113105" id="Path-146" stroke="#848D96"></path>
                <polyline id="Path-147" stroke="#848D96" points="657.928592 45.7463804 649.647904 24.5736505 680.369059 36.6227442 664.609651 7.539646"></polyline>
                <path d="M684.641629,3.48450511 C684.641629,3.48450511 725.134566,33.6249042 685.221355,53.4956116" id="Path-148" stroke="#848D96"></path>
                <polyline id="Path-149" stroke="#848D96" points="644.98684 53.0785507 642.318207 90.8225544 671.815306 96.2486535"></polyline>
                <path d="M664.489054,67.5955415 C664.489054,67.5955415 671.285541,56.6683759 699.78944,82.0332563" id="Path-150" stroke="#848D96"></path>
                <polyline id="Path-151" stroke="#848D96" points="699.0538 112.719109 687.981297 142.456234 665.771687 127.561821 675.781215 151.099044"></polyline>
                <polyline id="Path-152" stroke="#848D96" points="652.160623 170.363979 675.174786 183.09726 697.480874 173.940879"></polyline>
                <polyline id="Path-153" stroke="#848D96" points="672.931687 202.581927 687.311985 230.648224 657.772678 219.992493 665.65712 240.953245"></polyline>
                <polyline id="Path-155" stroke="#848D96" points="700.674965 231.5711 695.234329 262.874789 663.550984 265.546046 659.73582 288.933335"></polyline>
                <polyline id="Path-156" stroke="#848D96" points="598.38654 233.03943 560.530365 230.189802 555.794359 261.048855"></polyline>
                <path d="M540.315169,226.036428 L540.315169,253.644381" id="Path-157" stroke="#848D96"></path>
                <polyline id="Path-158" stroke="#848D96" points="601.143037 252.543917 622.082075 243.877841 610.440184 274.70932 639.539313 259.381474"></polyline>
                <polyline id="Path-159" stroke="#E5DB6D" points="645.601022 270.186279 641.843572 307.567508 672.053053 312.357676"></polyline>
                <path d="M585.307825,253.85111 C585.307825,253.85111 595.132151,260.664539 570.489071,289.205631" id="Path-160" stroke="#848D96"></path>
                <polyline id="Path-161" stroke="#848D96" points="495.642433 248.169087 520.05035 254.339691 494.438188 263.279786 512.385566 291.412434"></polyline>
                <polyline id="Path-162" stroke="#848D96" points="485.965407 271.49261 474.241681 292.848881 483.096927 315.670897"></polyline>
                <polyline id="Path-163" stroke="#848D96" points="440.627927 281.060019 459.730449 270.073397 446.589712 255.328918 461.372287 244.980812"></polyline>
                <path d="M464.504357,223.834795 C464.504357,223.834795 478.154184,220.643935 477.874227,238.354371" id="Path-164" stroke="#848D96"></path>
                <polyline id="Path-165" stroke="#848D96" points="440.867398 215.625418 427.841228 244.356082 397.326809 240.356952 388.119249 260.555965"></polyline>
                <path d="M385.938171,227.81066 L363.77163,252.111346" id="Path-166" stroke="#848D96"></path>
                <path d="M271.770107,202.675852 C271.770107,202.675852 262.609924,226.401787 271.623668,248.761934" id="Path-167" stroke="#848D96"></path>
                <path d="M290.205902,222.750781 C290.205902,222.750781 287.119487,209.360027 304.339839,210.414743" id="Path-168" stroke="#848D96"></path>
                <polyline id="Path-169" stroke="#848D96" points="308.468554 231.558175 318.530628 247.152286 333.073733 232.931718 344.993858 251.618456"></polyline>
                <path d="M342.300244,266.971291 C342.300244,266.971291 347.525528,269.036776 349.312944,274.567141 C351.10036,280.097505 357.230119,284.86613 364.14548,279.716635 C371.060841,274.567141 376.524735,275.551197 379.267449,282.523179 C382.010163,289.49516 383.22819,290.085422 386.125957,290.943671" id="Path-170" stroke="#848D96"></path>
                <polyline id="Path-171" stroke="#848D96" points="423.109529 266.440487 406.745414 285.370222 410.578667 308.608437"></polyline>
                <path d="M427.191728,297.945812 L453.100213,319.644176" id="Path-172" stroke="#848D96"></path>
                <polyline id="Path-173" stroke="#848D96" points="465.999756 320.035386 452.47311 348.788455 475.874044 339.436469 464.158933 369.677687 492.450065 353.906067"></polyline>
                <polyline id="Path-174" stroke="#848D96" points="491.684276 374.108527 518.970148 356.61093 527.809888 382.667753 534.067135 356.25505"></polyline>
                <path d="M509.272448,311.931136 L513.314161,319.914749 C513.314161,319.914749 515.94317,327.629512 511.474199,329.212448 C507.005229,330.795383 499.36198,332.062076 492.899719,321.996606" id="Path-175" stroke="#848D96"></path>
                <polyline id="Path-176" stroke="#848D96" points="562.693354 329.52352 570.819851 345.191736 586.92899 332.42485 598.424442 352.150792"></polyline>
                <path d="M529.812655,271.658055 C529.812655,271.658055 531.689657,276.569722 530.142573,279.32284 C528.595489,282.075959 523.422751,292.017344 534.91562,295.52617 C546.408488,299.034996 546.619532,302.166398 544.692569,308.472289 C542.765605,314.77818 541.847347,313.55888 542.609691,319.247796" id="Path-177" stroke="#848D96"></path>
                <path d="M538.696327,333.587278 C538.696327,333.587278 569.649201,358.386886 549.458724,382.352372" id="Path-178" stroke="#848D96"></path>
                <path d="M532.211669,395.968029 L549.183936,417.632787" id="Path-179" stroke="#848D96"></path>
                <polyline id="Path-180" stroke="#848D96" points="571.531371 374.797884 568.197733 413.175234 598.086771 418.418654"></polyline>
                <polyline id="Path-181" stroke="#848D96" points="493.720638 446.808948 503.745672 417.543171 540.724075 427.650002"></polyline>
                <path d="M562.770019,440.26006 L590.433186,439.930892" id="Path-182" stroke="#848D96"></path>
                <polyline id="Path-183" stroke="#848D96" points="496.365152 470.308257 520.29585 463.176862 529.606779 440.865832"></polyline>
                <path d="M462.625632,404.71338 C462.625632,404.71338 468.812244,404.391968 472.465464,408.052452 C476.118683,411.712936 482.665363,411.927498 487.159314,401.30882 C491.653265,390.690141 501.889343,397.856866 501.889343,397.856866 C501.889343,397.856866 505.490879,401.668147 510.411225,400.276508" id="Path-184" stroke="#848D96"></path>
                <path d="M529.213117,472.116095 C529.213117,472.116095 537.593728,482.771827 543.55293,483.965275 C549.512131,485.158724 556.837521,482.700306 551.385687,474.652928 C545.933854,466.60555 542.919797,459.397464 551.287487,456.241933 C559.655177,453.086403 569.030712,467.58099 569.030712,467.58099" id="Path-185" stroke="#848D96"></path>
                <polyline id="Path-186" stroke="#848D96" points="590.390977 483.731756 596.834288 457.81539 605.457816 484.701164 632.679944 467.039845"></polyline>
                <path d="M608.943061,443.388016 L613.119154,437.313921 C613.119154,437.313921 616.360622,433.861106 620.590983,437.834386 C624.821344,441.807665 630.383437,448.771892 637.446099,450.276413 C644.50876,451.780934 652.958284,453.072616 651.577451,441.765442 C650.196619,430.458269 649.652211,427.75599 649.652211,427.75599" id="Path-187" stroke="#848D96"></path>
                <path d="M657.582307,457.818837 L638.792475,485.887719" id="Path-188" stroke="#848D96"></path>
                <polyline id="Path-189" stroke="#848D96" points="664.625156 470.327214 679.358631 488.641699 692.520903 472.40304 704.464286 485.291425"></polyline>
                <path d="M679.868583,455.975669 C679.868583,455.975669 677.901995,451.606871 680.534449,446.104943 C683.166904,440.603014 681.453569,434.418623 671.732611,432.217852 C662.011653,430.01708 663.243462,423.870604 664.739723,418.446228 C666.235984,413.021852 665.794083,410.539306 665.266903,408.638405" id="Path-190" stroke="#848D96"></path>
                <polyline id="Path-191" stroke="#848D96" points="701.012635 389.902551 692.850821 412.799535 705.270561 433.373386"></polyline>
                <path d="M580.449499,388.38252 C580.449499,388.38252 590.490039,380.131782 615.625843,404.259267" id="Path-192" stroke="#848D96"></path>
                <path d="M628.127417,412.290272 C628.127417,412.290272 669.866807,396.683236 628.39273,362.518717" id="Path-193" stroke="#848D96"></path>
                <path d="M607.905929,368.532493 L632.073514,344.391221" id="Path-194" stroke="#848D96"></path>
                <path d="M646.346137,334.876375 L674.24533,335.106448" id="Path-195" stroke="#848D96"></path>
                <polyline id="Path-196" stroke="#848D96" points="662.785195 379.725061 669.358578 354.996974 678.60404 380.676373 705.503141 363.214106"></polyline>
                <polyline id="Path-197" stroke="#848D96" points="607.402869 331.314986 612.028615 307.740709 634.145194 295.71919"></polyline>
                <path d="M606.260645,286.597277 C606.260645,286.597277 578.713768,328.448985 556.691082,287.744194" id="Path-198" stroke="#848D96"></path>
                <path d="M676.919993,290.193134 C676.919993,290.193134 725.728935,305.641618 692.588092,337.306357" id="Path-199" stroke="#848D96"></path>
                <polyline id="Path-200" stroke="#848D96" points="200.398215 185.215228 204.982601 154.714029 243.565329 157.680075"></polyline>
                <polyline id="Path-201" stroke="#848D96" points="250.040738 165.135272 271.028647 157.223535 259.239806 187.652391 286.883919 172.086026"></polyline>
                <path d="M229.241442,177.843127 C229.241442,177.843127 238.412169,188.224288 214.465079,212.957631" id="Path-202" stroke="#848D96"></path>
                <path d="M197.184942,214.961717 C197.184942,214.961717 216.028715,255.766845 246.973079,215.247176" id="Path-203" stroke="#848D96"></path>
            </g>
        </g>
    </g>
</svg>